<?xml version="1.0" encoding="UTF-8" standalone="no"?>
<!DOCTYPE svg PUBLIC "-//W3C//DTD SVG 1.1//EN"
 "http://www.w3.org/Graphics/SVG/1.1/DTD/svg11.dtd">
<!-- Generated by graphviz version 2.47.0 (20210316.0004)
 -->
<!-- Title: dependencies Pages: 1 -->
<svg width="942pt" height="211pt"
 viewBox="0.00 0.00 942.00 211.00" xmlns="http://www.w3.org/2000/svg" xmlns:xlink="http://www.w3.org/1999/xlink">
<g id="graph0" class="graph" transform="scale(1 1) rotate(0) translate(4 207)">
<title>dependencies</title>
<polygon fill="white" stroke="transparent" points="-4,4 -4,-207 938,-207 938,4 -4,4"/>
<text text-anchor="start" x="446.01" y="-42.4" font-family="Times-12" font-weight="bold" font-size="14.00">Legend</text>
<polygon fill="#ffffb3" stroke="transparent" points="233,-10 233,-30 253,-30 253,-10 233,-10"/>
<text text-anchor="start" x="256.63" y="-15.4" font-family="Times-12" font-size="14.00"> &#160;Declarations</text>
<polygon fill="#8dd3c7" stroke="transparent" points="346,-10 346,-30 366,-30 366,-10 346,-10"/>
<text text-anchor="start" x="369.73" y="-15.4" font-family="Times-12" font-size="14.00"> &#160;Module</text>
<polygon fill="#80b1d3" stroke="transparent" points="432,-10 432,-30 452,-30 452,-10 432,-10"/>
<text text-anchor="start" x="455.78" y="-15.4" font-family="Times-12" font-size="14.00"> &#160;Bootstrap</text>
<polygon fill="#fdb462" stroke="transparent" points="529,-10 529,-30 549,-30 549,-10 529,-10"/>
<text text-anchor="start" x="552.67" y="-15.4" font-family="Times-12" font-size="14.00"> &#160;Providers</text>
<polygon fill="#fb8072" stroke="transparent" points="625,-10 625,-30 645,-30 645,-10 625,-10"/>
<text text-anchor="start" x="648.73" y="-15.4" font-family="Times-12" font-size="14.00"> &#160;Exports</text>
<g id="clust1" class="cluster">
<title>cluster_CustomerModule</title>
<polygon fill="none" stroke="black" stroke-dasharray="1,5" points="8,-70 8,-195 200,-195 200,-70 8,-70"/>
</g>
<g id="clust3" class="cluster">
<title>cluster_CustomerModule_imports</title>
<polygon fill="none" stroke="black" points="16,-78 16,-130 192,-130 192,-78 16,-78"/>
</g>
<g id="clust13" class="cluster">
<title>cluster_OrderListModule</title>
<polygon fill="none" stroke="black" stroke-dasharray="1,5" points="208,-70 208,-195 560,-195 560,-70 208,-70"/>
</g>
<g id="clust14" class="cluster">
<title>cluster_OrderListModule_declarations</title>
<polygon fill="none" stroke="black" points="400,-78 400,-130 552,-130 552,-78 400,-78"/>
</g>
<g id="clust16" class="cluster">
<title>cluster_OrderListModule_imports</title>
<polygon fill="none" stroke="black" points="216,-78 216,-130 392,-130 392,-78 216,-78"/>
</g>
<g id="clust26" class="cluster">
<title>cluster_OrderModule</title>
<polygon fill="none" stroke="black" stroke-dasharray="1,5" points="568,-70 568,-195 738,-195 738,-70 568,-70"/>
</g>
<g id="clust28" class="cluster">
<title>cluster_OrderModule_imports</title>
<polygon fill="none" stroke="black" points="576,-78 576,-130 730,-130 730,-78 576,-78"/>
</g>
<g id="clust38" class="cluster">
<title>cluster_ProductModule</title>
<polygon fill="none" stroke="black" stroke-dasharray="1,5" points="746,-70 746,-195 926,-195 926,-70 746,-70"/>
</g>
<g id="clust40" class="cluster">
<title>cluster_ProductModule_imports</title>
<polygon fill="none" stroke="black" points="754,-78 754,-130 918,-130 918,-78 754,-78"/>
</g>
<!-- CustomerRoutingModule -->
<g id="node1" class="node">
<title>CustomerRoutingModule</title>
<polygon fill="#8dd3c7" stroke="black" points="183.61,-122 180.61,-126 159.61,-126 156.61,-122 24.39,-122 24.39,-86 183.61,-86 183.61,-122"/>
<text text-anchor="middle" x="104" y="-99.8" font-family="Times,serif" font-size="14.00">CustomerRoutingModule</text>
</g>
<!-- CustomerModule -->
<g id="node2" class="node">
<title>CustomerModule</title>
<polygon fill="#8dd3c7" stroke="black" points="160.99,-187 157.99,-191 136.99,-191 133.99,-187 47.01,-187 47.01,-151 160.99,-151 160.99,-187"/>
<text text-anchor="middle" x="104" y="-164.8" font-family="Times,serif" font-size="14.00">CustomerModule</text>
</g>
<!-- CustomerRoutingModule&#45;&gt;CustomerModule -->
<g id="edge1" class="edge">
<title>CustomerRoutingModule&#45;&gt;CustomerModule</title>
<path fill="none" stroke="black" d="M104,-122.11C104,-122.11 104,-140.99 104,-140.99"/>
<polygon fill="black" stroke="black" points="100.5,-140.99 104,-150.99 107.5,-140.99 100.5,-140.99"/>
</g>
<!-- OrderListComponent -->
<g id="node3" class="node">
<title>OrderListComponent</title>
<polygon fill="#ffffb3" stroke="black" points="543.75,-122 408.25,-122 408.25,-86 543.75,-86 543.75,-122"/>
<text text-anchor="middle" x="476" y="-99.8" font-family="Times,serif" font-size="14.00">OrderListComponent</text>
</g>
<!-- OrderListModule -->
<g id="node4" class="node">
<title>OrderListModule</title>
<polygon fill="#8dd3c7" stroke="black" points="446.97,-187 443.97,-191 422.97,-191 419.97,-187 333.03,-187 333.03,-151 446.97,-151 446.97,-187"/>
<text text-anchor="middle" x="390" y="-164.8" font-family="Times,serif" font-size="14.00">OrderListModule</text>
</g>
<!-- OrderListComponent&#45;&gt;OrderListModule -->
<g id="edge2" class="edge">
<title>OrderListComponent&#45;&gt;OrderListModule</title>
<path fill="none" stroke="black" d="M427.55,-122.11C427.55,-122.11 427.55,-140.99 427.55,-140.99"/>
<polygon fill="black" stroke="black" points="424.05,-140.99 427.55,-150.99 431.05,-140.99 424.05,-140.99"/>
</g>
<!-- OrderListRoutingModule -->
<g id="node5" class="node">
<title>OrderListRoutingModule</title>
<polygon fill="#8dd3c7" stroke="black" points="383.59,-122 380.59,-126 359.59,-126 356.59,-122 224.41,-122 224.41,-86 383.59,-86 383.59,-122"/>
<text text-anchor="middle" x="304" y="-99.8" font-family="Times,serif" font-size="14.00">OrderListRoutingModule</text>
</g>
<!-- OrderListRoutingModule&#45;&gt;OrderListModule -->
<g id="edge3" class="edge">
<title>OrderListRoutingModule&#45;&gt;OrderListModule</title>
<path fill="none" stroke="black" d="M358.28,-122.11C358.28,-122.11 358.28,-140.99 358.28,-140.99"/>
<polygon fill="black" stroke="black" points="354.78,-140.99 358.28,-150.99 361.78,-140.99 354.78,-140.99"/>
</g>
<!-- OrderRoutingModule -->
<g id="node6" class="node">
<title>OrderRoutingModule</title>
<polygon fill="#8dd3c7" stroke="black" points="721.81,-122 718.81,-126 697.81,-126 694.81,-122 584.19,-122 584.19,-86 721.81,-86 721.81,-122"/>
<text text-anchor="middle" x="653" y="-99.8" font-family="Times,serif" font-size="14.00">OrderRoutingModule</text>
</g>
<!-- OrderModule -->
<g id="node7" class="node">
<title>OrderModule</title>
<polygon fill="#8dd3c7" stroke="black" points="699.19,-187 696.19,-191 675.19,-191 672.19,-187 606.81,-187 606.81,-151 699.19,-151 699.19,-187"/>
<text text-anchor="middle" x="653" y="-164.8" font-family="Times,serif" font-size="14.00">OrderModule</text>
</g>
<!-- OrderRoutingModule&#45;&gt;OrderModule -->
<g id="edge4" class="edge">
<title>OrderRoutingModule&#45;&gt;OrderModule</title>
<path fill="none" stroke="black" d="M653,-122.11C653,-122.11 653,-140.99 653,-140.99"/>
<polygon fill="black" stroke="black" points="649.5,-140.99 653,-150.99 656.5,-140.99 649.5,-140.99"/>
</g>
<!-- ProductRoutingModule -->
<g id="node8" class="node">
<title>ProductRoutingModule</title>
<polygon fill="#8dd3c7" stroke="black" points="910.22,-122 907.22,-126 886.22,-126 883.22,-122 761.78,-122 761.78,-86 910.22,-86 910.22,-122"/>
<text text-anchor="middle" x="836" y="-99.8" font-family="Times,serif" font-size="14.00">ProductRoutingModule</text>
</g>
<!-- ProductModule -->
<g id="node9" class="node">
<title>ProductModule</title>
<polygon fill="#8dd3c7" stroke="black" points="887.6,-187 884.6,-191 863.6,-191 860.6,-187 784.4,-187 784.4,-151 887.6,-151 887.6,-187"/>
<text text-anchor="middle" x="836" y="-164.8" font-family="Times,serif" font-size="14.00">ProductModule</text>
</g>
<!-- ProductRoutingModule&#45;&gt;ProductModule -->
<g id="edge5" class="edge">
<title>ProductRoutingModule&#45;&gt;ProductModule</title>
<path fill="none" stroke="black" d="M836,-122.11C836,-122.11 836,-140.99 836,-140.99"/>
<polygon fill="black" stroke="black" points="832.5,-140.99 836,-150.99 839.5,-140.99 832.5,-140.99"/>
</g>
</g>
</svg>
